<?xml version="1.0" encoding="utf-8"?>
<!-- Generator: Adobe Illustrator 20.0.0, SVG Export Plug-In . SVG Version: 6.00 Build 0)  -->
<svg version="1.1" id="Layer_1" xmlns="http://www.w3.org/2000/svg" xmlns:xlink="http://www.w3.org/1999/xlink" x="0px" y="0px"
	 viewBox="0 0 612 792" style="enable-background:new 0 0 612 792;" xml:space="preserve">
<style type="text/css">
	.st0{fill:#414042;}
	.st1{fill:#58595B;}
	.st2{fill:#6D6E71;}
	.st3{fill:#808285;}
	.st4{fill:#939598;}
	.st5{fill:#A7A9AC;}
	.st6{fill:#BCBEC0;}
	.st7{fill:#D1D3D4;}
	.st8{fill:#E6E7E8;}
	.st9{fill:#F1F2F2;}
</style>
<g>
	<path class="st0" d="M432.7,204.1l-13-7.5c-5.7-3.3-13.1-1.3-16.4,4.4l-51,88.3c-3.3,5.7-1.3,13.1,4.4,16.4l13,7.5
		c5.7,3.3,13.1,1.3,16.4-4.4l51-88.3C440.4,214.8,438.4,207.4,432.7,204.1z"/>
</g>
<g>
	<path class="st1" d="M512.9,288.7l-7.5-13c-3.3-5.7-10.7-7.7-16.4-4.4l-88.3,51c-5.7,3.3-7.7,10.7-4.4,16.4l7.5,13
		c3.3,5.7,10.7,7.7,16.4,4.4l88.3-51C514.2,301.8,516.2,294.4,512.9,288.7z"/>
</g>
<g>
	<path class="st2" d="M540,402v-15c0-6.6-5.4-12-12-12H426c-6.6,0-12,5.4-12,12v15c0,6.6,5.4,12,12,12h102
		C534.6,414,540,408.6,540,402z"/>
</g>
<g>
	<path class="st3" d="M506.9,513.7l7.5-13c3.3-5.7,1.3-13.1-4.4-16.4l-88.3-51c-5.7-3.3-13.1-1.3-16.4,4.4l-7.5,13
		c-3.3,5.7-1.3,13.1,4.4,16.4l88.3,51C496.2,521.4,503.6,519.4,506.9,513.7z"/>
</g>
<g>
	<path class="st4" d="M422.3,593.9l13-7.5c5.7-3.3,7.7-10.7,4.4-16.4l-51-88.3c-3.3-5.7-10.7-7.7-16.4-4.4l-13,7.5
		c-5.7,3.3-7.7,10.7-4.4,16.4l51,88.3C409.2,595.2,416.6,597.2,422.3,593.9z"/>
</g>
<g>
	<path class="st5" d="M309,621h15c6.6,0,12-5.4,12-12V507c0-6.6-5.4-12-12-12h-15c-6.6,0-12,5.4-12,12v102
		C297,615.6,302.4,621,309,621z"/>
</g>
<g>
	<path class="st6" d="M197.3,587.9l13,7.5c5.7,3.3,13.1,1.3,16.4-4.4l51-88.3c3.3-5.7,1.3-13.1-4.4-16.4l-13-7.5
		c-5.7-3.3-13.1-1.3-16.4,4.4l-51,88.3C189.6,577.2,191.6,584.6,197.3,587.9z"/>
</g>
<g>
	<path class="st7" d="M117.1,503.3l7.5,13c3.3,5.7,10.7,7.7,16.4,4.4l88.3-51c5.7-3.3,7.7-10.7,4.4-16.4l-7.5-13
		c-3.3-5.7-10.7-7.7-16.4-4.4l-88.3,51C115.8,490.2,113.8,497.6,117.1,503.3z"/>
</g>
<g>
	<path class="st7" d="M90,390v15c0,6.6,5.4,12,12,12h102c6.6,0,12-5.4,12-12v-15c0-6.6-5.4-12-12-12H102C95.4,378,90,383.4,90,390z"
		/>
</g>
<g>
	<path class="st8" d="M123.1,278.3l-7.5,13c-3.3,5.7-1.3,13.1,4.4,16.4l88.3,51c5.7,3.3,13.1,1.3,16.4-4.4l7.5-13
		c3.3-5.7,1.3-13.1-4.4-16.4l-88.3-51C133.8,270.6,126.4,272.6,123.1,278.3z"/>
</g>
<g>
	<path class="st9" d="M207.7,198.1l-13,7.5c-5.7,3.3-7.7,10.7-4.4,16.4l51,88.3c3.3,5.7,10.7,7.7,16.4,4.4l13-7.5
		c5.7-3.3,7.7-10.7,4.4-16.4l-51-88.3C220.8,196.8,213.4,194.8,207.7,198.1z"/>
</g>
<g>
	<path d="M321,171h-15c-6.6,0-12,5.4-12,12v102c0,6.6,5.4,12,12,12h15c6.6,0,12-5.4,12-12V183C333,176.4,327.6,171,321,171z"/>
</g>
</svg>
